<?xml version="1.0" encoding="utf-8"?>
<!-- Generator: Adobe Illustrator 26.0.1, SVG Export Plug-In . SVG Version: 6.00 Build 0)  -->
<svg version="1.1" id="Calque_1" xmlns="http://www.w3.org/2000/svg" xmlns:xlink="http://www.w3.org/1999/xlink" x="0px" y="0px"
	 viewBox="0 0 1024 1024" style="enable-background:new 0 0 1024 1024;" xml:space="preserve">
<style type="text/css">
	.st0{fill:#FFFFFF;}
</style>
<path id="behance" class="st0" d="M308.2,197.4c29.9,0,57.3,2.7,82,7.9c24.7,5.3,45.8,13.9,63.4,26c17.6,12.1,31.3,28.1,41,48.1
	c9.7,20,14.6,44.7,14.6,74.1c0,31.7-7.2,58.2-21.6,79.3c-14.4,21.2-35.7,38.5-63.9,52c38.8,11.2,67.7,30.7,86.8,58.6
	c19.1,27.9,28.7,61.6,28.7,100.9c0,31.7-6.2,59.2-18.5,82.4c-12.3,23.2-28.9,42.2-49.8,56.8c-20.9,14.7-44.7,25.6-71.4,32.6
	c-26.9,7.1-54.6,10.6-82.4,10.6H12V197.4H308.2z M290.6,452.1c24.7,0,44.9-5.9,60.8-17.6c15.9-11.8,23.8-30.8,23.8-57.3
	c0-14.7-2.7-26.7-7.9-36.1c-5.3-9.4-12.3-16.8-21.2-22.1c-8.8-5.3-18.9-8.9-30.4-11c-11.8-2.1-23.7-3.1-35.7-3.1H150.5v147.2
	L290.6,452.1L290.6,452.1z M298.5,719.1c13.1,0.1,26.1-1.3,38.8-3.9c12.3-2.7,23.2-7.1,32.6-13.2c9.4-6.2,16.9-14.6,22.5-25.1
	c5.6-10.6,8.4-24.1,8.4-40.6c0-32.3-9.1-55.4-27.3-69.2c-18.2-13.8-42.3-20.7-72.3-20.7H150.5v172.8L298.5,719.1L298.5,719.1z
	 M713.3,705.9c18.8,18.2,45.8,27.3,81.1,27.3c25.3,0,47-6.3,65.2-18.9c18.2-12.6,29.4-26,33.5-40.1h110.2
	c-17.6,54.7-44.7,93.7-81.1,117.2c-36.4,23.5-80.5,35.3-132.2,35.3c-35.8,0-68.2-5.7-96.9-17.2c-28.8-11.4-53.2-27.8-73.2-48.9
	s-35.4-46.4-46.3-75.8c-10.8-29.4-16.3-61.7-16.3-96.9c0-34.1,5.6-65.8,16.7-95.2c11.2-29.4,27.1-54.8,47.6-76.2
	s45.1-38.3,73.6-50.7c28.5-12.3,60.1-18.5,94.8-18.5c38.8,0,72.6,7.5,101.4,22.5c28.8,15,52.4,35.1,70.9,60.4
	c18.5,25.3,31.9,54.1,40.1,86.4c8.2,32.3,11.2,66.1,8.8,101.4H682.5C684.2,658.3,694.5,687.7,713.3,705.9L713.3,705.9z M854.8,466.2
	c-15-16.4-37.8-24.7-68.3-24.7c-20,0-36.6,3.4-49.8,10.1c-13.2,6.8-23.8,15.1-31.7,25.1c-7.9,10-13.5,20.6-16.7,31.7
	c-3.2,11.2-5.2,21.2-5.7,29.9h203.6C880.2,506.7,869.7,482.6,854.8,466.2L854.8,466.2z M661.1,229.3h254.4v70.6H661.1V229.3z"/>
</svg>
