<?xml version="1.0" encoding="utf-8"?>
<!-- Generator: Adobe Illustrator 26.0.1, SVG Export Plug-In . SVG Version: 6.00 Build 0)  -->
<svg version="1.1" id="Layer_1" xmlns="http://www.w3.org/2000/svg" xmlns:xlink="http://www.w3.org/1999/xlink" x="0px" y="0px"
	 viewBox="0 0 1024 1024" style="enable-background:new 0 0 1024 1024;" xml:space="preserve">
<style type="text/css">
	.st0{fill:#FFFFFF;}
</style>
<g>
	<path class="st0" d="M736,12H288C135.8,12,12,135.8,12,288V736c0,152.2,123.8,276,276,276H736c152.2,0,276-123.8,276-276V288
		C1012,135.8,888.2,12,736,12z M923.3,736c0,103.2-84,187.2-187.2,187.2H288c-103.2,0-187.2-84-187.2-187.2V288
		c0-103.2,84-187.2,187.2-187.2H736c103.2,0,187.2,84,187.2,187.2L923.3,736L923.3,736z"/>
	<path class="st0" d="M512,254.3c-142.1,0-257.7,115.6-257.7,257.7c0,142.1,115.6,257.7,257.7,257.7S769.7,654.1,769.7,512
		C769.7,369.9,654.1,254.3,512,254.3z M512,680.9C418.8,680.9,343,605.2,343,512c0-93.2,75.8-168.9,168.9-168.9
		S680.9,418.8,680.9,512C680.9,605.2,605.2,680.9,512,680.9z"/>
	<path class="st0" d="M780.5,179.1c-17.1,0-33.9,6.9-46,19c-12.1,12.1-19.1,28.9-19.1,46c0,17.1,7,33.9,19.1,46
		c12.1,12.1,28.9,19,46,19c17.2,0,33.9-7,46-19c12.1-12.1,19-28.9,19-46c0-17.2-6.9-34-19-46C814.4,186,797.6,179.1,780.5,179.1z"/>
</g>
</svg>
