<?xml version="1.0" encoding="utf-8"?>
<!-- Generator: Adobe Illustrator 26.0.1, SVG Export Plug-In . SVG Version: 6.00 Build 0)  -->
<svg version="1.1" id="Camada_1" xmlns="http://www.w3.org/2000/svg" xmlns:xlink="http://www.w3.org/1999/xlink" x="0px" y="0px"
	 viewBox="0 0 1024 1024" style="enable-background:new 0 0 1024 1024;" xml:space="preserve">
<style type="text/css">
	.st0{fill:#FFFFFF;}
</style>
<g transform="translate(1.4065934065934016 1.4065934065934016) scale(2.81 2.81)">
	<path class="st0" d="M48.9,135.6h57v183.1h-57V135.6z M77.4,44.6c18.1,0,33,14.8,33,33s-14.8,33-33,33c-18.2,0-33-14.8-33-33
		C44.3,59.4,59.1,44.6,77.4,44.6"/>
	<path class="st0" d="M141.5,135.6h54.6v25h0.8c7.6-14.4,26.2-29.6,53.9-29.6c57.6,0,68.3,37.9,68.3,87.2v100.4h-56.9v-89
		c0-21.2-0.4-48.5-29.6-48.5c-29.6,0-34.1,23.2-34.1,47v90.6h-56.9L141.5,135.6L141.5,135.6z"/>
</g>
</svg>
